# xmcd
#
# Track frame offsets:
# 150
# 13516
# 27144
# 40302
#
# Disc length: 760 seconds
#
#
# Revision: 0
# Processed by: cddbd v1.5.1PL0 Copyright (c) Steve Scherf et al.
# Submitted via: FreeRIP 2.92 
#
DISCID=2402f604
DTITLE=The Vasco Era - Miles
DYEAR=2005
DGENRE=
TTITLE0=Kingswood
TTITLE1=He came along again
TTITLE2=Don't go to sleep
TTITLE3=Turn to blue
EXTD=
EXTT0=
EXTT1=
EXTT2=
EXTT3=
PLAYORDER=
